<svg width="17" height="17" viewBox="0 0 17 17" fill="none" xmlns="http://www.w3.org/2000/svg">
<path fill-rule="evenodd" clip-rule="evenodd" d="M0.925618 0.931282C1.19809 0.658896 1.56758 0.505877 1.95285 0.505877C2.33812 0.505877 2.70762 0.658896 2.98009 0.931282L8.49113 6.44232L14.0022 0.931282C14.1362 0.79251 14.2965 0.681821 14.4738 0.605673C14.6511 0.529526 14.8417 0.489444 15.0346 0.487768C15.2276 0.486091 15.4189 0.522853 15.5974 0.595909C15.776 0.668964 15.9382 0.77685 16.0747 0.913272C16.2111 1.04969 16.319 1.21192 16.392 1.39048C16.4651 1.56904 16.5018 1.76037 16.5002 1.95329C16.4985 2.14621 16.4584 2.33687 16.3823 2.51413C16.3061 2.6914 16.1954 2.85172 16.0566 2.98575L10.5456 8.49679L16.0566 14.0078C16.3213 14.2819 16.4678 14.6489 16.4645 15.0298C16.4611 15.4108 16.3083 15.7752 16.0389 16.0446C15.7696 16.314 15.4051 16.4668 15.0242 16.4701C14.6432 16.4734 14.2762 16.327 14.0022 16.0623L8.49113 10.5513L2.98009 16.0623C2.70606 16.327 2.33904 16.4734 1.95808 16.4701C1.57712 16.4668 1.21271 16.314 0.943317 16.0446C0.673928 15.7752 0.521122 15.4108 0.517812 15.0298C0.514502 14.6489 0.660951 14.2819 0.925618 14.0078L6.43666 8.49679L0.925618 2.98575C0.653232 2.71328 0.500214 2.34379 0.500214 1.95852C0.500214 1.57325 0.653232 1.20375 0.925618 0.931282Z" fill="white"/>
</svg>
