<svg width="73" height="22" viewBox="0 0 73 22" fill="none" xmlns="http://www.w3.org/2000/svg">
<rect width="73" height="22" fill="white"/>
<path d="M15.52 16.856H12.96V6.728H20.48V8.808H15.52V11.128H20.16V13.208H15.52V16.856ZM26.3668 8.792H21.4548V6.728H29.5668V8.568L24.6708 14.776V14.808H29.8228V16.872H21.1988V15.192L26.3668 8.824V8.792ZM33.8169 16.856H31.2569V6.728H36.0889C37.3582 6.728 38.2809 7.016 38.8569 7.592C39.4435 8.15733 39.7369 8.99467 39.7369 10.104C39.7369 10.936 39.5289 11.6507 39.1129 12.248C38.6969 12.8347 38.1475 13.2027 37.4649 13.352L37.4489 13.4C37.7155 13.5707 38.0089 13.8533 38.3289 14.248C38.6489 14.6427 38.9635 15.0747 39.2729 15.544C39.5929 16.0027 39.8755 16.4347 40.1209 16.84V16.856H37.1449L35.4169 14.296C35.2675 14.072 35.1449 13.912 35.0489 13.816C34.9635 13.72 34.8569 13.6613 34.7289 13.64C34.6115 13.6187 34.4195 13.608 34.1529 13.608H33.8169V16.856ZM35.6729 8.808H33.8169V11.528H35.6729C36.2062 11.528 36.5742 11.4213 36.7769 11.208C36.9902 10.9947 37.0969 10.648 37.0969 10.168C37.0969 9.688 36.9902 9.34133 36.7769 9.128C36.5742 8.91467 36.2062 8.808 35.6729 8.808ZM41.5694 16.856V6.728H46.0014C46.8867 6.728 47.628 6.80267 48.2254 6.952C48.8227 7.09067 49.3027 7.34133 49.6654 7.704C50.028 8.06667 50.2894 8.57333 50.4494 9.224C50.6094 9.864 50.6894 10.6907 50.6894 11.704C50.6894 12.76 50.6094 13.624 50.4494 14.296C50.2894 14.968 50.028 15.4907 49.6654 15.864C49.3027 16.2373 48.8227 16.4987 48.2254 16.648C47.628 16.7867 46.8867 16.856 46.0014 16.856H41.5694ZM45.6334 8.888H44.1294V14.696H45.6334C46.252 14.696 46.7374 14.6267 47.0894 14.488C47.452 14.3493 47.708 14.0667 47.8574 13.64C48.0174 13.2133 48.0974 12.568 48.0974 11.704C48.0974 10.8827 48.0174 10.2747 47.8574 9.88C47.708 9.47467 47.452 9.208 47.0894 9.08C46.7374 8.952 46.252 8.888 45.6334 8.888ZM56.9761 8.792H52.0641V6.728H60.1761V8.568L55.2801 14.776V14.808H60.4321V16.872H51.8081V15.192L56.9761 8.824V8.792Z" fill="black"/>
</svg>
