<svg width="16" height="20" viewBox="0 0 16 20" fill="none" xmlns="http://www.w3.org/2000/svg">
<path d="M7.5148 0.5C7.32191 0.5 7.13692 0.576988 7.00052 0.714027C6.86413 0.851066 6.7875 1.03693 6.7875 1.23073V12.2015C6.06021 11.5816 5.14146 11.2343 4.18786 11.2189C3.23426 11.2034 2.30484 11.5207 1.55803 12.1167C0.811221 12.7127 0.293252 13.5505 0.092419 14.4872C-0.108414 15.4239 0.0203197 16.4017 0.456676 17.2537C0.893033 18.1058 1.61 18.7794 2.48536 19.1598C3.36073 19.5401 4.3403 19.6037 5.2571 19.3397C6.1739 19.0756 6.97117 18.5003 7.51302 17.7117C8.05486 16.9232 8.30773 15.9702 8.22853 15.0153C8.23774 14.9678 8.24228 14.9195 8.24211 14.8711V5.85871H13.3332C14.0405 5.85871 14.7188 5.57643 15.2189 5.07395C15.719 4.57147 16 3.88997 16 3.17936C16 2.46875 15.719 1.78724 15.2189 1.28477C14.7188 0.782289 14.0405 0.5 13.3332 0.5H7.5148Z" fill="#222222"/>
</svg>
