<svg width="10" height="12" viewBox="0 0 10 12" fill="none" xmlns="http://www.w3.org/2000/svg">
<path d="M10 5.99995C10.0004 6.15428 9.9608 6.30609 9.88513 6.4406C9.80946 6.57511 9.70027 6.68775 9.56818 6.76756L1.38182 11.7755C1.2438 11.86 1.08572 11.9062 0.923908 11.9092C0.762096 11.9122 0.602417 11.8719 0.461364 11.7926C0.321653 11.7144 0.205271 11.6005 0.124184 11.4625C0.0430974 11.3245 0.000233442 11.1674 0 11.0073V0.992564C0.000233442 0.832499 0.0430974 0.675384 0.124184 0.537377C0.205271 0.39937 0.321653 0.285452 0.461364 0.207337C0.602417 0.12799 0.762096 0.0877355 0.923908 0.0907321C1.08572 0.0937286 1.2438 0.139867 1.38182 0.224383L9.56818 5.23234C9.70027 5.31215 9.80946 5.42479 9.88513 5.5593C9.9608 5.69381 10.0004 5.84562 10 5.99995Z" fill="#222222"/>
</svg>
