<svg width="20" height="21" viewBox="0 0 20 21" fill="none" xmlns="http://www.w3.org/2000/svg">
<path fill-rule="evenodd" clip-rule="evenodd" d="M3 2.5H17C17.2652 2.5 17.5196 2.60536 17.7071 2.79289C17.8946 2.98043 18 3.23478 18 3.5V17.5C18 17.7652 17.8946 18.0196 17.7071 18.2071C17.5196 18.3946 17.2652 18.5 17 18.5H3C2.73478 18.5 2.48043 18.3946 2.29289 18.2071C2.10536 18.0196 2 17.7652 2 17.5V3.5C2 3.23478 2.10536 2.98043 2.29289 2.79289C2.48043 2.60536 2.73478 2.5 3 2.5ZM0 3.5C0 2.70435 0.316071 1.94129 0.87868 1.37868C1.44129 0.816071 2.20435 0.5 3 0.5H17C17.7956 0.5 18.5587 0.816071 19.1213 1.37868C19.6839 1.94129 20 2.70435 20 3.5V17.5C20 18.2956 19.6839 19.0587 19.1213 19.6213C18.5587 20.1839 17.7956 20.5 17 20.5H3C2.20435 20.5 1.44129 20.1839 0.87868 19.6213C0.316071 19.0587 0 18.2956 0 17.5V3.5ZM10 10.5C7.239 10.5 5 7.814 5 4.5H7C7 7.066 8.67 8.5 10 8.5C11.33 8.5 13 7.066 13 4.5H15C15 7.814 12.761 10.5 10 10.5Z" fill="#222222"/>
</svg>
