<svg width="21" height="13" viewBox="0 0 21 13" fill="none" xmlns="http://www.w3.org/2000/svg">
<path fill-rule="evenodd" clip-rule="evenodd" d="M0.5 1.76471C0.5 1.29668 0.685924 0.847817 1.01687 0.51687C1.34782 0.185924 1.79668 0 2.26471 0H18.7353C19.2033 0 19.6522 0.185924 19.9831 0.51687C20.3141 0.847817 20.5 1.29668 20.5 1.76471V4.87059C20.5 5.18706 20.3106 5.47059 20.02 5.59177C19.8467 5.66413 19.6988 5.78613 19.5947 5.9424C19.4906 6.09867 19.4351 6.28224 19.4351 6.47C19.4351 6.65776 19.4906 6.84133 19.5947 6.9976C19.6988 7.15387 19.8467 7.27587 20.02 7.34824C20.1622 7.40767 20.2837 7.50786 20.3691 7.63619C20.4545 7.76452 20.5001 7.91526 20.5 8.06941V11.1765C20.5 11.6445 20.3141 12.0934 19.9831 12.4243C19.6522 12.7553 19.2033 12.9412 18.7353 12.9412H2.26471C1.79668 12.9412 1.34782 12.7553 1.01687 12.4243C0.685924 12.0934 0.5 11.6445 0.5 11.1765V8.07059C0.5 7.75412 0.689412 7.47059 0.98 7.34824C1.15326 7.27587 1.30124 7.15387 1.40532 6.9976C1.50941 6.84133 1.56494 6.65776 1.56494 6.47C1.56494 6.28224 1.50941 6.09867 1.40532 5.9424C1.30124 5.78613 1.15326 5.66413 0.98 5.59177C0.837946 5.53241 0.716598 5.4324 0.631198 5.3043C0.545798 5.1762 0.500155 5.02572 0.5 4.87176V1.76471ZM2.26471 1.17647C2.1087 1.17647 1.95908 1.23845 1.84876 1.34876C1.73845 1.45908 1.67647 1.6087 1.67647 1.76471V4.62471C3.09765 5.42824 3.09765 7.51294 1.67647 8.31647V11.1765C1.67647 11.3325 1.73845 11.4821 1.84876 11.5924C1.95908 11.7027 2.1087 11.7647 2.26471 11.7647H18.7353C18.8913 11.7647 19.0409 11.7027 19.1512 11.5924C19.2616 11.4821 19.3235 11.3325 19.3235 11.1765V8.31647C17.9024 7.51294 17.9024 5.42824 19.3235 4.62471V1.76471C19.3235 1.6087 19.2616 1.45908 19.1512 1.34876C19.0409 1.23845 18.8913 1.17647 18.7353 1.17647H2.26471Z" fill="#222222"/>
<path fill-rule="evenodd" clip-rule="evenodd" d="M13.4412 10.2942C13.6752 10.2942 13.8996 10.3872 14.0651 10.5526C14.2306 10.7181 14.3235 10.9425 14.3235 11.1765V11.7648C14.3235 11.9988 14.2306 12.2232 14.0651 12.3887C13.8996 12.5542 13.6752 12.6471 13.4412 12.6471C13.2072 12.6471 12.9827 12.5542 12.8173 12.3887C12.6518 12.2232 12.5588 11.9988 12.5588 11.7648V11.1765C12.5588 10.9425 12.6518 10.7181 12.8173 10.5526C12.9827 10.3872 13.2072 10.2942 13.4412 10.2942ZM13.4412 0.294189C13.6752 0.294189 13.8996 0.387151 14.0651 0.552625C14.2306 0.718098 14.3235 0.942528 14.3235 1.17654V1.76478C14.3235 1.99879 14.2306 2.22322 14.0651 2.3887C13.8996 2.55417 13.6752 2.64713 13.4412 2.64713C13.2072 2.64713 12.9827 2.55417 12.8173 2.3887C12.6518 2.22322 12.5588 1.99879 12.5588 1.76478V1.17654C12.5588 0.942528 12.6518 0.718098 12.8173 0.552625C12.9827 0.387151 13.2072 0.294189 13.4412 0.294189ZM13.4412 3.52948C13.6752 3.52948 13.8996 3.62245 14.0651 3.78792C14.2306 3.95339 14.3235 4.17782 14.3235 4.41184V5.00007C14.3235 5.23409 14.2306 5.45852 14.0651 5.62399C13.8996 5.78946 13.6752 5.88242 13.4412 5.88242C13.2072 5.88242 12.9827 5.78946 12.8173 5.62399C12.6518 5.45852 12.5588 5.23409 12.5588 5.00007V4.41184C12.5588 4.17782 12.6518 3.95339 12.8173 3.78792C12.9827 3.62245 13.2072 3.52948 13.4412 3.52948ZM13.4412 7.0589C13.6752 7.0589 13.8996 7.15186 14.0651 7.31733C14.2306 7.4828 14.3235 7.70723 14.3235 7.94125V8.52948C14.3235 8.7635 14.2306 8.98793 14.0651 9.1534C13.8996 9.31887 13.6752 9.41184 13.4412 9.41184C13.2072 9.41184 12.9827 9.31887 12.8173 9.1534C12.6518 8.98793 12.5588 8.7635 12.5588 8.52948V7.94125C12.5588 7.70723 12.6518 7.4828 12.8173 7.31733C12.9827 7.15186 13.2072 7.0589 13.4412 7.0589Z" fill="#222222"/>
</svg>
