<svg width="17" height="18" viewBox="0 0 17 18" fill="none" xmlns="http://www.w3.org/2000/svg">
<path d="M13.2405 2.82C12.557 2.03962 12.1803 1.03743 12.1805 0H9.09054V12.4C9.0667 13.071 8.78341 13.7066 8.3003 14.1729C7.8172 14.6393 7.17199 14.8999 6.50054 14.9C5.08054 14.9 3.90054 13.74 3.90054 12.3C3.90054 10.58 5.56054 9.29 7.27054 9.82V6.66C3.82054 6.2 0.800537 8.88 0.800537 12.3C0.800537 15.63 3.56054 18 6.49054 18C9.63054 18 12.1805 15.45 12.1805 12.3V6.01C13.4335 6.90985 14.9379 7.39265 16.4805 7.39V4.3C16.4805 4.3 14.6005 4.39 13.2405 2.82Z" fill="#222222"/>
</svg>
