<svg width="22" height="18" viewBox="0 0 22 18" fill="none" xmlns="http://www.w3.org/2000/svg">
<path d="M21.201 2.5C20.431 2.85 19.601 3.08 18.741 3.19C19.621 2.66 20.301 1.82 20.621 0.81C19.791 1.31 18.871 1.66 17.901 1.86C17.111 1 16.001 0.5 14.741 0.5C12.391 0.5 10.471 2.42 10.471 4.79C10.471 5.13 10.511 5.46 10.581 5.77C7.02101 5.59 3.85101 3.88 1.74101 1.29C1.37101 1.92 1.16101 2.66 1.16101 3.44C1.16101 4.93 1.91101 6.25 3.07101 7C2.36101 7 1.70101 6.8 1.12101 6.5V6.53C1.12101 8.61 2.60101 10.35 4.56101 10.74C3.93173 10.9122 3.2711 10.9362 2.63101 10.81C2.90261 11.6625 3.43454 12.4084 4.15202 12.9429C4.8695 13.4775 5.73645 13.7737 6.63101 13.79C5.11464 14.9904 3.235 15.6393 1.30101 15.63C0.961006 15.63 0.621006 15.61 0.281006 15.57C2.18101 16.79 4.44101 17.5 6.86101 17.5C14.741 17.5 19.071 10.96 19.071 5.29C19.071 5.1 19.071 4.92 19.061 4.73C19.901 4.13 20.621 3.37 21.201 2.5Z" fill="#222222"/>
</svg>
