<svg width="26" height="29" viewBox="0 0 26 29" fill="none" xmlns="http://www.w3.org/2000/svg">
<g filter="url(#filter0_d_24_197)">
<path d="M20.3362 4.94721L13.6425 4.70465C13.588 4.70323 13.5338 4.69152 13.483 4.6702C13.4323 4.64887 13.386 4.61836 13.3468 4.58042C13.3076 4.54248 13.2764 4.49786 13.2549 4.44916C13.2333 4.40046 13.2219 4.34864 13.2214 4.29669C13.2208 4.24474 13.231 4.1937 13.2515 4.14652C13.2719 4.09935 13.3022 4.05696 13.3405 4.02184C13.3789 3.98671 13.4245 3.95952 13.4748 3.94186C13.5252 3.9242 13.5791 3.91641 13.6337 3.91895L20.7282 4.17637C20.8355 4.18027 20.9391 4.22394 21.0169 4.2981C21.0947 4.37225 21.1405 4.47103 21.1445 4.57343L21.4145 11.3385C21.4172 11.3905 21.409 11.4419 21.3905 11.4899C21.372 11.5379 21.3434 11.5814 21.3066 11.618C21.2698 11.6545 21.2253 11.6834 21.1758 11.7029C21.1264 11.7224 21.0728 11.7322 21.0184 11.7316C20.9639 11.7311 20.9095 11.7202 20.8585 11.6997C20.8074 11.6791 20.7606 11.6493 20.7208 11.612C20.681 11.5746 20.649 11.5305 20.6267 11.4821C20.6043 11.4337 20.592 11.382 20.5905 11.3301L20.3362 4.94721Z" fill="white"/>
</g>
<g filter="url(#filter1_d_24_197)">
<path d="M5.66383 19.0528L12.3575 19.2953C12.412 19.2968 12.4662 19.3085 12.517 19.3298C12.5677 19.3511 12.614 19.3816 12.6532 19.4196C12.6924 19.4575 12.7236 19.5021 12.7451 19.5508C12.7667 19.5995 12.7781 19.6514 12.7786 19.7033C12.7792 19.7553 12.769 19.8063 12.7485 19.8535C12.7281 19.9007 12.6978 19.943 12.6595 19.9782C12.6211 20.0133 12.5755 20.0405 12.5252 20.0581C12.4748 20.0758 12.4209 20.0836 12.3663 20.0811L5.27185 19.8236C5.16447 19.8197 5.06087 19.7761 4.98311 19.7019C4.90535 19.6278 4.85955 19.529 4.85546 19.4266L4.5855 12.6615C4.58284 12.6095 4.59101 12.5581 4.60953 12.5101C4.62805 12.4621 4.65656 12.4186 4.6934 12.382C4.73024 12.3455 4.77468 12.3166 4.82416 12.2971C4.87363 12.2776 4.92716 12.2678 4.98164 12.2684C5.03611 12.2689 5.09046 12.2798 5.14153 12.3003C5.19261 12.3209 5.23939 12.3507 5.27918 12.388C5.31897 12.4254 5.35097 12.4695 5.37333 12.5179C5.3957 12.5663 5.40798 12.618 5.40947 12.6699L5.66383 19.0528Z" fill="white"/>
</g>
<defs>
<filter id="filter0_d_24_197" x="9.22131" y="3.91846" width="16.1937" height="15.8132" filterUnits="userSpaceOnUse" color-interpolation-filters="sRGB">
<feFlood flood-opacity="0" result="BackgroundImageFix"/>
<feColorMatrix in="SourceAlpha" type="matrix" values="0 0 0 0 0 0 0 0 0 0 0 0 0 0 0 0 0 0 127 0" result="hardAlpha"/>
<feOffset dy="4"/>
<feGaussianBlur stdDeviation="2"/>
<feComposite in2="hardAlpha" operator="out"/>
<feColorMatrix type="matrix" values="0 0 0 0 0 0 0 0 0 0 0 0 0 0 0 0 0 0 0.25 0"/>
<feBlend mode="normal" in2="BackgroundImageFix" result="effect1_dropShadow_24_197"/>
<feBlend mode="normal" in="SourceGraphic" in2="effect1_dropShadow_24_197" result="shape"/>
</filter>
<filter id="filter1_d_24_197" x="0.585022" y="12.2683" width="16.1937" height="15.8132" filterUnits="userSpaceOnUse" color-interpolation-filters="sRGB">
<feFlood flood-opacity="0" result="BackgroundImageFix"/>
<feColorMatrix in="SourceAlpha" type="matrix" values="0 0 0 0 0 0 0 0 0 0 0 0 0 0 0 0 0 0 127 0" result="hardAlpha"/>
<feOffset dy="4"/>
<feGaussianBlur stdDeviation="2"/>
<feComposite in2="hardAlpha" operator="out"/>
<feColorMatrix type="matrix" values="0 0 0 0 0 0 0 0 0 0 0 0 0 0 0 0 0 0 0.25 0"/>
<feBlend mode="normal" in2="BackgroundImageFix" result="effect1_dropShadow_24_197"/>
<feBlend mode="normal" in="SourceGraphic" in2="effect1_dropShadow_24_197" result="shape"/>
</filter>
</defs>
</svg>
