<svg width="21" height="21" viewBox="0 0 21 21" fill="none" xmlns="http://www.w3.org/2000/svg">
<path fill-rule="evenodd" clip-rule="evenodd" d="M1.03197 1.04217C1.37255 0.701691 1.83443 0.510418 2.31601 0.510418C2.7976 0.510418 3.25947 0.701691 3.60006 1.04217L10.4889 7.93098L17.3777 1.04217C17.5452 0.86871 17.7456 0.730348 17.9672 0.635163C18.1888 0.539979 18.4271 0.489877 18.6682 0.487781C18.9094 0.485686 19.1485 0.531638 19.3718 0.622958C19.595 0.714277 19.7977 0.849135 19.9683 1.01966C20.1388 1.19019 20.2736 1.39297 20.365 1.61617C20.4563 1.83938 20.5022 2.07853 20.5001 2.31968C20.498 2.56083 20.4479 2.79915 20.3528 3.02074C20.2576 3.24232 20.1192 3.44273 19.9458 3.61026L13.0569 10.4991L19.9458 17.3879C20.2766 17.7304 20.4596 18.1892 20.4555 18.6654C20.4514 19.1416 20.2604 19.5971 19.9236 19.9338C19.5869 20.2706 19.1314 20.4616 18.6552 20.4657C18.179 20.4699 17.7202 20.2868 17.3777 19.956L10.4889 13.0672L3.60006 19.956C3.25752 20.2868 2.79875 20.4699 2.32255 20.4657C1.84635 20.4616 1.39083 20.2706 1.05409 19.9338C0.717357 19.5971 0.52635 19.1416 0.522212 18.6654C0.518074 18.1892 0.701136 17.7304 1.03197 17.3879L7.92077 10.4991L1.03197 3.61026C0.691486 3.26968 0.500214 2.80781 0.500214 2.32622C0.500214 1.84463 0.691486 1.38276 1.03197 1.04217Z" fill="white"/>
</svg>
