<svg width="256" height="256" viewBox="0 0 256 256" fill="none" xmlns="http://www.w3.org/2000/svg">
<path d="M0 0H256V256H0V0Z" fill="black"/>
<path d="M6.85312 159.924H0V112H20.1311V121.842H6.85312V132.82H19.2744V142.662H6.85312V159.924Z" fill="white"/>
<path d="M61.0239 159.697V159.924H53.7425C53.5426 158.713 53.2999 157.325 53.0143 155.76C52.7573 154.196 52.4718 152.53 52.1577 150.763H42.906C42.3349 154.297 41.8066 157.35 41.3212 159.924H34.0397V159.773L42.8203 112H52.2434L61.0239 159.697ZM47.4462 120.631C47.1606 123.205 46.7466 126.334 46.204 130.019C45.6615 133.703 45.0904 137.464 44.4908 141.3H50.6157C49.9875 137.464 49.4022 133.703 48.8596 130.019C48.3171 126.334 47.9031 123.205 47.6175 120.631H47.4462Z" fill="white"/>
<path d="M76.5887 121.767H63.4393V112H85.1551V120.707L72.0485 150.082V150.233H85.8404V160H62.7539V152.05L76.5887 121.918V121.767Z" fill="white"/>
<path d="M89.6796 159.924V112H109.811V121.842H96.5327V130.927H108.055V140.77H96.5327V150.082H109.811V159.924H89.6796Z" fill="white"/>
<path d="M120.082 159.924H113.229V112H126.164C129.562 112 132.032 113.363 133.574 116.088C135.145 118.763 135.93 122.726 135.93 127.975C135.93 131.912 135.373 135.293 134.259 138.12C133.146 140.896 131.675 142.637 129.848 143.344L129.805 143.571C130.519 144.379 131.304 145.716 132.161 147.584C133.017 149.451 133.86 151.495 134.688 153.716C135.544 155.886 136.301 157.931 136.958 159.849V159.924H128.991L124.365 147.811C123.965 146.751 123.637 145.994 123.38 145.539C123.152 145.085 122.866 144.808 122.523 144.707C122.209 144.606 121.695 144.555 120.981 144.555H120.082V159.924ZM125.05 121.842H120.082V134.713H125.05C126.478 134.713 127.463 134.208 128.006 133.199C128.577 132.189 128.863 130.549 128.863 128.278C128.863 126.006 128.577 124.366 128.006 123.356C127.463 122.347 126.478 121.842 125.05 121.842Z" fill="white"/>
<path d="M153.677 159.924V112H165.541C167.911 112 169.896 112.353 171.495 113.06C173.094 113.716 174.379 114.902 175.35 116.618C176.32 118.334 177.02 120.732 177.448 123.811C177.877 126.839 178.091 130.751 178.091 135.546C178.091 140.543 177.877 144.631 177.448 147.811C177.02 150.991 176.32 153.464 175.35 155.23C174.379 156.997 173.094 158.233 171.495 158.94C169.896 159.596 167.911 159.924 165.541 159.924H153.677ZM164.556 122.221H160.53V149.703H164.556C166.212 149.703 167.511 149.375 168.454 148.719C169.425 148.063 170.11 146.726 170.51 144.707C170.938 142.688 171.152 139.634 171.152 135.546C171.152 131.659 170.938 128.782 170.51 126.915C170.11 124.997 169.425 123.735 168.454 123.129C167.511 122.524 166.212 122.221 164.556 122.221Z" fill="white"/>
<path d="M207.213 159.697V159.924H199.932C199.732 158.713 199.489 157.325 199.204 155.76C198.947 154.196 198.661 152.53 198.347 150.763H189.095C188.524 154.297 187.996 157.35 187.511 159.924H180.229V159.773L189.01 112H198.433L207.213 159.697ZM193.636 120.631C193.35 123.205 192.936 126.334 192.393 130.019C191.851 133.703 191.28 137.464 190.68 141.3H196.805C196.177 137.464 195.592 133.703 195.049 130.019C194.506 126.334 194.092 123.205 193.807 120.631H193.636Z" fill="white"/>
<path d="M222.778 121.767H209.629V112H231.344V120.707L218.238 150.082V150.233H232.03V160H208.943V152.05L222.778 121.918V121.767Z" fill="white"/>
<path d="M235.869 159.924V112H256V121.842H242.722V130.927H254.244V140.77H242.722V150.082H256V159.924H235.869Z" fill="white"/>
</svg>
